<?xml version="1.0" encoding="UTF-8"?>
<svg version="1.1" xmlns="http://www.w3.org/2000/svg" width="32" height="33">
<path d="M0 0 C10.56 0 21.12 0 32 0 C32 10.89 32 21.78 32 33 C21.44 33 10.88 33 0 33 C0 22.11 0 11.22 0 0 Z M7 3 C7 3.99 7 4.98 7 6 C7.66 6 8.32 6 9 6 C9 6.66 9 7.32 9 8 C9.66 8 10.32 8 11 8 C11.33 9.32 11.66 10.64 12 12 C10.68 11.67 9.36 11.34 8 11 C8 10.34 8 9.68 8 9 C7.34 9 6.68 9 6 9 C6 8.34 6 7.68 6 7 C5.01 7 4.02 7 3 7 C3.80452159 10.19594411 3.80452159 10.19594411 6.5625 12.4375 C9 15 9 15 9 19 C7.68 19.33 6.36 19.66 5 20 C2.64644661 21.88214887 2.64644661 21.88214887 3 25 C3.99 25 4.98 25 6 25 C6 24.34 6 23.68 6 23 C7.32 22.67 8.64 22.34 10 22 C9.67 23.32 9.34 24.64 9 26 C8.34 26 7.68 26 7 26 C7 26.99 7 27.98 7 29 C10.2981424 28.1490712 10.2981424 28.1490712 13 25 C13 24.34 13 23.68 13 23 C18 24 18 24 21 25 C20.505 22.525 20.505 22.525 20 20 C20.66 20 21.32 20 22 20 C22 20.66 22 21.32 22 22 C23.32 22.33 24.64 22.66 26 23 C26 23.66 26 24.32 26 25 C26.99 25 27.98 25 29 25 C27.75794193 21.27382578 25.8889325 19.60708543 23 17 C22.34 17 21.68 17 21 17 C21 16.34 21 15.68 21 15 C22.32 14.67 23.64 14.34 25 14 C29.35355339 10.58925565 29.35355339 10.58925565 29 7 C28.01 7 27.02 7 26 7 C26 7.66 26 8.32 26 9 C25.34 9 24.68 9 24 9 C24 9.66 24 10.32 24 11 C22.68 11.33 21.36 11.66 20 12 C20.33 10.68 20.66 9.36 21 8 C21.66 8 22.32 8 23 8 C23 7.34 23 6.68 23 6 C23.66 6 24.32 6 25 6 C25 5.01 25 4.02 25 3 C21.27382578 4.24205807 19.60708543 6.1110675 17 9 C17 9.66 17 10.32 17 11 C16.34 11 15.68 11 15 11 C14.67 9.68 14.34 8.36 14 7 C10.58925565 2.64644661 10.58925565 2.64644661 7 3 Z M22 24 C21.01 25.485 21.01 25.485 20 27 C21.88214887 29.35355339 21.88214887 29.35355339 25 29 C25 28.01 25 27.02 25 26 C24.34 26 23.68 26 23 26 C22.67 25.34 22.34 24.68 22 24 Z " fill="#000000" transform="translate(0,0)"/>
</svg>
